<svg xmlns="http://www.w3.org/2000/svg" viewBox="0 0 222.93 146.49"><defs><style>.cls-1{fill:#d97c5b;}.cls-2{fill:#e15b49;}.cls-3{fill:#fff;}</style></defs><title>Ресурс 16</title><g id="Слой_2" data-name="Слой 2"><g id="Слой_2-2" data-name="Слой 2"><rect class="cls-1" x="126.87" y="58.45" width="96.06" height="70.37" rx="31.05" ry="31.05"/><path class="cls-2" d="M110.69,101h5.77c.66,0,1.3,0,1.94,0a1.36,1.36,0,0,0,1.15-1.68,38.61,38.61,0,0,1-.77-7.59V87c0-20.15,15.05-36.49,33.62-36.49h5.27a1.32,1.32,0,0,0,1.26-1.37v-3c0-25.46-19-46.1-42.47-46.1h-74C19,0,0,20.64,0,46.1v8.77C0,80.33,19,101,42.47,101Z"/><path class="cls-1" d="M151.14,125.22,174,146.38c.31.29.77-.07.62-.48l-8.36-22.64a.41.41,0,0,0-.42-.27l-16.37,2.28"/><polyline class="cls-2" points="80.52 85.89 91.31 75.5 101.84 100.47"/><path class="cls-2" d="M71.09,94.79l-10.55,38.8a.5.5,0,0,0,.83.51l32.32-39a.57.57,0,0,0,0-.69l-13.45-18a.48.48,0,0,0-.83.1l-8.3,18.2Z"/><polyline class="cls-2" points="61.37 134.1 101.84 96.48 86.96 92.84 78.35 106.32"/><ellipse class="cls-3" cx="43.43" cy="50.49" rx="10.25" ry="9.74"/><ellipse class="cls-3" cx="110.89" cy="50.49" rx="10.25" ry="9.74"/><ellipse class="cls-3" cx="77.24" cy="50.49" rx="10.25" ry="9.74"/></g></g></svg>