<svg xmlns="http://www.w3.org/2000/svg" viewBox="0 0 212.91 255.24"><defs><style>.cls-1{fill:#f6d3a7;}.cls-2{fill:#fff;}.cls-3{fill:#e15b49;}.cls-4{fill:#f2f2f4;}.cls-5{fill:#c64b3b;}.cls-6{fill:#fdfffe;}.cls-7{fill:#f8ead6;}.cls-8{fill:#d87c5a;}</style></defs><title>Ресурс 18</title><g id="Слой_2" data-name="Слой 2"><g id="Слой_2-2" data-name="Слой 2"><path class="cls-1" d="M166.19,214.35l-49.73-10.5L122,177.67c9.4-5.29,18.4-6.33,22.71-4.27a44.87,44.87,0,0,1,5.4,3.62c2.26,1.71,3.19,2.69,3.68,4.08a6.61,6.61,0,0,1,.34,2.65,11,11,0,0,0,1.48,4.91c2,3.44,5.36,4.28,7.23,5.57C165.58,196.13,168.06,201,166.19,214.35Z"/><path class="cls-2" d="M121.28,114.58,44,82.28,74.1,10.37C77.67,23.79,85.23,45,101.56,60.7c8.4,8.08,20.26,13.68,20.26,13.68a107.71,107.71,0,0,0,14.05,6.1Q128.58,97.54,121.28,114.58Z"/><path class="cls-3" d="M127.19,159.66c-.1.18.15.47.23,1.29a6,6,0,0,1-1.08,3.81c-4.45,4.58-8.17,8.63-11.07,11.89,0,0-5.94,6.66-14.35,20.79a6.46,6.46,0,0,0-1.18,3.73,5.86,5.86,0,0,0,1.18,3.11,42.24,42.24,0,0,0,5.22,5,42.67,42.67,0,0,0,3.93,2.81c2.13,1.39,4,2.36,5.83,3.35,3.5,1.88,5.19,2.45,7.1,2.09a7.58,7.58,0,0,0,3.68-1.91l2.19-3.71,3.54-7.38a177.1,177.1,0,0,1,19.23-31.44c.6-.79,1.21-1.57,1.82-2.33C133.41,161,127.6,158.93,127.19,159.66Z"/><rect class="cls-3" x="32.03" y="-5.81" width="11.67" height="167.54" rx="3.5" ry="3.5" transform="translate(34.48 -8.64) rotate(23.67)"/><path class="cls-2" d="M31.24,58.74A15,15,0,0,0,29,57.49a15.18,15.18,0,1,0-12.19,27.8,16.39,16.39,0,0,0,2.45.82Z"/><path class="cls-2" d="M119.9,113.91,43.21,80.3,11.92,151.68c12.17-6.68,32.75-15.85,55.37-14.87,11.36.5,23.88,5.23,23.88,5.23a117.91,117.91,0,0,1,14,5.61Z"/><path class="cls-4" d="M135.06,80.07,11.92,151.68,74.5,8.92C77.84,22.39,85,43.75,101.09,59.71c8.26,8.21,20,14,20,14A109.62,109.62,0,0,0,135.06,80.07Z"/><path class="cls-3" d="M119.17,89.24h56.36a12.54,12.54,0,0,1,12.54,12.54v52.85a12.54,12.54,0,0,1-12.54,12.54H119.17a2.23,2.23,0,0,1-2.23-2.23V91.47a2.23,2.23,0,0,1,2.23-2.23Z" transform="translate(64.3 -50.44) rotate(23.67)"/><path class="cls-5" d="M152.67,170.66l-45.49-19.77a3.47,3.47,0,0,1-1.4-4.67l28.3-64.58a13.9,13.9,0,0,1,.66-1.49,2.18,2.18,0,0,1,.46-.66,2.29,2.29,0,0,1,.72-.46q7.64,24,15.91,48.65,7.86,23.35,15.88,45.95a10.85,10.85,0,0,1-1.42.46,12.28,12.28,0,0,1-5.08.16,18.61,18.61,0,0,1-4.07-1.47C155.34,172,153.83,171.27,152.67,170.66Z"/><ellipse class="cls-1" cx="115.42" cy="168.1" rx="4.11" ry="4.01" transform="translate(-86.8 194.25) rotate(-62.9)"/><rect class="cls-1" x="114.38" y="166.27" width="10.95" height="8.19" transform="translate(90.78 -35.9) rotate(27.1)"/><ellipse class="cls-1" cx="125.17" cy="173.08" rx="4.1" ry="4.01" transform="translate(-85.93 205.65) rotate(-62.9)"/><ellipse class="cls-1" cx="109.74" cy="174.6" rx="4.25" ry="4.01" transform="translate(-95.56 194.12) rotate(-63.28)"/><rect class="cls-1" x="108.72" y="172.6" width="10.95" height="8.48" transform="translate(91.7 -32.46) rotate(26.72)"/><ellipse class="cls-1" cx="119.52" cy="179.52" rx="4.25" ry="4.01" transform="translate(-94.57 205.57) rotate(-63.28)"/><ellipse class="cls-1" cx="135.73" cy="173.47" rx="5.26" ry="4.94" transform="translate(-83.66 193.03) rotate(-57.05)"/><polygon class="cls-1" points="142.88 184.75 132.67 177.71 138.56 169.03 148.77 176.06 142.88 184.75"/><ellipse class="cls-1" cx="146.28" cy="180.73" rx="5.26" ry="4.54" transform="translate(-84.94 205.19) rotate(-57.05)"/><ellipse class="cls-1" cx="106.89" cy="181.96" rx="3.87" ry="3.55" transform="translate(-103.75 194.76) rotate(-63.05)"/><rect class="cls-1" x="105.98" y="180.09" width="9.68" height="7.73" transform="translate(95.42 -30.25) rotate(26.95)"/><ellipse class="cls-1" cx="115.52" cy="186.34" rx="3.87" ry="3.55" transform="translate(-102.94 204.85) rotate(-63.05)"/><ellipse class="cls-1" cx="104.73" cy="189.44" rx="3.61" ry="3.41" transform="translate(-111.58 197.55) rotate(-63.21)"/><rect class="cls-1" x="104.27" y="187.73" width="8.42" height="7.2" transform="translate(97.88 -28.36) rotate(26.79)"/><ellipse class="cls-1" cx="112.62" cy="193.42" rx="3.61" ry="3.41" transform="translate(-110.8 206.78) rotate(-63.21)"/><rect class="cls-6" x="149.67" y="190.04" width="13.56" height="27.03" transform="translate(122.77 -50.96) rotate(30.01)"/><path class="cls-7" d="M122.24,171.47a3.14,3.14,0,0,1,4.28-1.14l-3.13,5.42A3.14,3.14,0,0,1,122.24,171.47Z"/><path class="cls-7" d="M124.83,170.39h1.75a.16.16,0,0,1,.16.16v5.94a.16.16,0,0,1-.16.16h-1.75a0,0,0,0,1,0,0v-6.26A0,0,0,0,1,124.83,170.39Z" transform="translate(103.63 -39.65) rotate(30.01)"/><path class="cls-7" d="M116.52,177.92a3.18,3.18,0,0,1,4.33-1.16l-3.17,5.49A3.16,3.16,0,0,1,116.52,177.92Z"/><path class="cls-7" d="M119.13,176.82h1.75a.16.16,0,0,1,.16.16v6a.16.16,0,0,1-.16.16h-1.75a0,0,0,0,1,0,0v-6.34A0,0,0,0,1,119.13,176.82Z" transform="translate(106.1 -35.93) rotate(30.01)"/><path class="cls-7" d="M112.39,184.57a3,3,0,0,1,4-1.08l-3,5.12A3,3,0,0,1,112.39,184.57Z"/><path class="cls-7" d="M114.83,183.54h1.62a.16.16,0,0,1,.16.16v5.6a.16.16,0,0,1-.16.16h-1.62a0,0,0,0,1,0,0v-5.92a0,0,0,0,1,0,0Z" transform="translate(108.77 -32.88) rotate(30.01)"/><path class="cls-7" d="M109.62,191.91a2.73,2.73,0,0,1,3.74-1l-2.74,4.73A2.74,2.74,0,0,1,109.62,191.91Z"/><path class="cls-7" d="M111.88,191h1.49a.16.16,0,0,1,.16.16v5.15a.16.16,0,0,1-.16.16h-1.49a0,0,0,0,1,0,0V191a0,0,0,0,1,0,0Z" transform="translate(111.97 -30.4) rotate(30.01)"/><path class="cls-7" d="M138.51,175a3.74,3.74,0,0,0-1.37-5.11l-3.74,6.48A3.74,3.74,0,0,0,138.51,175Z"/><path class="cls-7" d="M133.13,168.82h2a.25.25,0,0,1,.25.25v7a.25.25,0,0,1-.25.25h-2a0,0,0,0,1,0,0v-7.48A0,0,0,0,1,133.13,168.82Z" transform="translate(164.26 389.13) rotate(-149.99)"/><circle class="cls-2" cx="166.45" cy="197.31" r="2.86"/><path class="cls-8" d="M212.91,217.34,162,188.81l-15.37,26.62,66.29,39.81Z"/></g></g></svg>